<svg width="32" height="25" viewBox="0 0 32 25" fill="none" xmlns="http://www.w3.org/2000/svg">
<mask id="path-1-inside-1_6_163" fill="white">
<path fill-rule="evenodd" clip-rule="evenodd" d="M15.6733 4.7498C15.5976 4.63813 15.5216 4.53309 15.4456 4.43508C12.6107 0.782635 7.35167 0.119859 3.69922 2.95473C0.0467698 5.7896 -0.616007 11.0486 2.21887 14.7011C4.84166 18.0803 12.4087 25.877 16.4188 24.7796C20.6732 23.9206 26.9692 17.4513 29.2632 14.4957C32.0981 10.8433 31.4353 5.58426 27.7829 2.74938C24.1304 -0.0854895 18.8714 0.577287 16.0365 4.22974C15.9156 4.38551 15.7944 4.5594 15.6733 4.7498Z"/>
</mask>
<path d="M15.4456 4.43508L13.0756 6.27451L13.0756 6.27451L15.4456 4.43508ZM15.6733 4.7498L13.1906 6.43379L15.7543 10.2137L18.2049 6.35944L15.6733 4.7498ZM3.69922 2.95473L5.53865 5.32465V5.32465L3.69922 2.95473ZM2.21887 14.7011L-0.151052 16.5405H-0.151052L2.21887 14.7011ZM16.4188 24.7796L15.825 21.8389L15.7252 21.8591L15.6269 21.886L16.4188 24.7796ZM29.2632 14.4957L31.6331 16.3351V16.3351L29.2632 14.4957ZM16.0365 4.22974L18.4065 6.06917L18.4065 6.06916L16.0365 4.22974ZM13.0756 6.27451C13.1086 6.31696 13.147 6.36965 13.1906 6.43379L18.1561 3.0658C18.0481 2.90661 17.9347 2.74923 17.8155 2.59565L13.0756 6.27451ZM5.53865 5.32465C7.88223 3.50566 11.2567 3.93093 13.0756 6.27451L17.8155 2.59566C13.9647 -2.36566 6.82111 -3.26595 1.85979 0.584815L5.53865 5.32465ZM4.58878 12.8616C2.7698 10.5181 3.19507 7.14363 5.53865 5.32465L1.85979 0.584814C-3.10153 4.43557 -4.00181 11.5792 -0.151052 16.5405L4.58878 12.8616ZM15.6269 21.886C15.6777 21.872 15.2752 21.9651 14.1729 21.4372C13.1626 20.9534 11.969 20.1407 10.7025 19.1006C8.17509 17.0251 5.78068 14.3973 4.58878 12.8616L-0.151052 16.5405C1.27984 18.3841 3.98037 21.3442 6.8947 23.7375C8.34905 24.9318 9.96306 26.0737 11.5814 26.8487C13.1077 27.5797 15.1548 28.2358 17.2107 27.6732L15.6269 21.886ZM17.0125 27.7202C18.5903 27.4016 20.139 26.6222 21.5002 25.7622C22.8961 24.8804 24.2805 23.7942 25.552 22.6813C28.0842 20.4649 30.3646 17.9695 31.6331 16.3351L26.8933 12.6563C25.8679 13.9775 23.8533 16.1945 21.6003 18.1664C20.4792 19.1477 19.3486 20.0245 18.2957 20.6896C17.2082 21.3767 16.3744 21.728 15.825 21.8389L17.0125 27.7202ZM31.6331 16.3351C35.4839 11.3738 34.5836 4.23023 29.6223 0.379466L25.9434 5.1193C28.287 6.93829 28.7123 10.3127 26.8933 12.6563L31.6331 16.3351ZM29.6223 0.379466C24.661 -3.47129 17.5174 -2.57101 13.6666 2.39031L18.4065 6.06916C20.2254 3.72558 23.5999 3.30032 25.9434 5.1193L29.6223 0.379466ZM13.6666 2.39031C13.4795 2.63143 13.3047 2.88377 13.1417 3.14015L18.2049 6.35944C18.284 6.23502 18.3518 6.13958 18.4065 6.06917L13.6666 2.39031Z" fill="#4D2A6B" mask="url(#path-1-inside-1_6_163)"/>
</svg>
