<svg width="112" height="31" viewBox="0 0 112 31" fill="none" xmlns="http://www.w3.org/2000/svg">
<g id="&#208;&#187;&#208;&#190;&#208;&#179;&#208;&#190;&#209;&#130;&#208;&#184;&#208;&#191;" clip-path="url(#clip0_156_242)">
<path id="Vector" fill-rule="evenodd" clip-rule="evenodd" d="M89.4891 30.6437L96.4381 8.19543H101.652L95.3456 30.6437H89.4891Z" fill="#F7F7F7"/>
<path id="Vector_2" fill-rule="evenodd" clip-rule="evenodd" d="M100.582 13.2371L99.2242 12.8276L97.7283 17.2396L98.6681 17.5232L99.139 16.1699C99.1839 15.9781 99.2478 15.7564 99.3334 15.5001C99.4197 15.3101 99.4899 15.1284 99.5552 14.9591C99.7592 14.4314 99.9165 14.0247 100.369 13.8656L100.582 13.2371Z" fill="#F7F7F7"/>
<path id="Vector_3" fill-rule="evenodd" clip-rule="evenodd" d="M106.289 22.1026C109.328 21.951 112.048 20.9597 111.282 15.8563C110.694 11.9368 107.18 8.01727 101.83 8.19543C97.3715 8.19543 95.0173 11.0422 95.0173 14.9732C95.0173 17.2515 96.295 19.2797 98.1291 20.5825L98.1405 20.5433C97.6629 19.8648 97.3715 19.0495 97.3715 18.1724C97.3715 15.811 98.9766 13.7184 101.295 13.8966C103.792 13.7184 106.289 15.9891 106.289 18.3506C106.289 18.4104 106.287 18.4698 106.284 18.5288H106.289V22.1026ZM103.435 22.0984V22.0838C103.424 22.0885 103.412 22.0931 103.401 22.0978C103.412 22.098 103.424 22.0981 103.435 22.0984ZM98.2097 20.6393C98.2093 20.6386 98.209 20.638 98.2083 20.6373L98.2061 20.6366C98.2072 20.6375 98.2086 20.6384 98.2097 20.6393Z" fill="#F7F7F7"/>
<path id="Vector_4" fill-rule="evenodd" clip-rule="evenodd" d="M109.165 11.4023C110.12 12.2447 111.176 14.439 111.539 16.4494C111.679 17.2263 111.929 18.8741 111.994 20.3104H111.996V30.6437H106.289V11.4023H109.165Z" fill="#F7F7F7"/>
<path id="Vector_5" fill-rule="evenodd" clip-rule="evenodd" d="M79.0021 30.9993C85.4043 30.9993 90.5945 25.8146 90.5945 19.4188C90.5945 13.0231 85.4043 7.83838 79.0021 7.83838C72.6 7.83838 67.4098 13.0231 67.4098 19.4188C67.4098 25.8146 72.6 30.9993 79.0021 30.9993ZM79.0021 25.6545C82.4495 25.6545 85.2442 22.9425 85.2442 19.597C85.2442 16.2516 82.4495 13.5395 79.0021 13.5395C75.5548 13.5395 72.7601 16.2516 72.7601 19.597C72.7601 22.9425 75.5548 25.6545 79.0021 25.6545Z" fill="#F7F7F7"/>
<path id="Vector_6" fill-rule="evenodd" clip-rule="evenodd" d="M61.3924 8.19543H67.3748L61.4616 30.6437H54.9257L55.2378 29.5678L55.2431 29.5693L58.4729 18.8867L61.3924 8.19543Z" fill="#F7F7F7"/>
<path id="Vector_7" d="M65.1091 5.70115C66.6851 5.70115 67.9626 4.4249 67.9626 2.85057C67.9626 1.27625 66.6851 0 65.1091 0C63.5332 0 62.2556 1.27625 62.2556 2.85057C62.2556 4.4249 63.5332 5.70115 65.1091 5.70115Z" fill="#F7F7F7"/>
<path id="Vector_8" fill-rule="evenodd" clip-rule="evenodd" d="M54.8914 0.000732422L61.0158 0.0340227L55.0637 21.6695C54.0154 26.9883 49.3218 31 43.69 31C37.2878 31 32.0977 25.8153 32.0977 19.4196C32.0977 13.0238 37.2878 7.83911 43.69 7.83911C46.8096 7.83911 49.641 9.06995 51.7248 11.072L51.8446 10.6923L54.8914 0.000732422ZM43.69 25.6552C47.1374 25.6552 49.9321 22.9432 49.9321 19.5977C49.9321 16.2523 47.1374 13.5403 43.69 13.5403C40.2426 13.5403 37.448 16.2523 37.448 19.5977C37.448 22.9432 40.2426 25.6552 43.69 25.6552Z" fill="#F7F7F7"/>
<path id="Vector_9" fill-rule="evenodd" clip-rule="evenodd" d="M25.8841 8.19543H31.8665L25.953 30.6437H19.4172L19.7293 29.5678L19.7345 29.5693L22.9646 18.8867L25.8841 8.19543Z" fill="#F7F7F7"/>
<path id="Vector_10" d="M29.6008 5.70115C31.1768 5.70115 32.4543 4.4249 32.4543 2.85057C32.4543 1.27625 31.1768 0 29.6008 0C28.0249 0 26.7473 1.27625 26.7473 2.85057C26.7473 4.4249 28.0249 5.70115 29.6008 5.70115Z" fill="#F7F7F7"/>
<path id="Vector_11" fill-rule="evenodd" clip-rule="evenodd" d="M22.506 8.19971L15.7081 30.694L10.4944 30.7289L16.6497 8.2389L22.506 8.19971Z" fill="#F7F7F7"/>
<path id="Vector_12" fill-rule="evenodd" clip-rule="evenodd" d="M11.5305 25.6802L12.8906 26.0806L14.3571 21.6586L13.4152 21.3813L12.9537 22.7378C12.91 22.9299 12.8475 23.152 12.7637 23.4089C12.6787 23.5995 12.6096 23.7817 12.5454 23.9514C12.3449 24.4804 12.1905 24.8882 11.7394 25.0503L11.5305 25.6802Z" fill="#F7F7F7"/>
<path id="Vector_13" fill-rule="evenodd" clip-rule="evenodd" d="M5.76414 16.8532C2.72621 17.0251 0.012015 18.0346 0.812515 23.1326C1.42733 27.0482 4.96695 30.9441 10.3159 30.7301C14.7744 30.7003 17.1095 27.8378 17.0831 23.9069C17.0678 21.6287 15.7764 19.609 13.9338 18.3185L13.9226 18.3578C14.4047 19.0331 14.7016 19.8465 14.7075 20.7235C14.7233 23.0849 13.1323 25.1882 10.8127 25.0255C8.31717 25.2204 5.80513 22.9665 5.78929 20.605C5.7889 20.5453 5.79007 20.4859 5.79282 20.4268L5.78811 20.4269L5.76414 16.8532ZM8.61761 16.8383L8.61768 16.8528C8.6292 16.8481 8.64076 16.8433 8.65232 16.8386C8.64076 16.8385 8.62917 16.8384 8.61761 16.8383ZM13.8526 18.2623C13.8531 18.263 13.8536 18.2636 13.854 18.2643L13.8564 18.2649C13.8551 18.2641 13.8539 18.2632 13.8526 18.2623Z" fill="#F7F7F7"/>
<path id="Vector_14" fill-rule="evenodd" clip-rule="evenodd" d="M2.95987 27.5724C1.99909 26.7366 0.928069 24.5493 0.552124 22.5415C0.406831 21.7655 0.145736 20.1194 0.0709435 18.6835H0.0693277L0 8.35045L5.70689 8.31226L5.83598 27.5532L2.95987 27.5724Z" fill="#F7F7F7"/>
</g>
<defs>
<clipPath id="clip0_156_242">
<rect width="112" height="31" fill="white"/>
</clipPath>
</defs>
</svg>
