<svg width="529" height="124" viewBox="0 0 529 124" fill="none" xmlns="http://www.w3.org/2000/svg">
<path fill-rule="evenodd" clip-rule="evenodd" d="M63.371 99.0042C63.519 91.2832 63.526 82.3843 63.526 72.5C64.3179 65.0853 64.8798 58.3028 65.2408 52.1242C72.3569 45.0576 78.7946 32.8363 79.3738 26.4653C80.2238 17.115 78.2774 9.29555 75.0264 9C71.7754 8.70445 71.1925 14.6128 70.3424 23.9631C70.8541 31.2495 68.588 37.6311 65.6496 42.8185C66.4984 12.771 61.9097 0 56.526 0C40.9283 1.90216 41.8296 18.0161 43.1527 41.6698C43.5685 49.1041 44.026 57.2832 44.026 66C44.026 67.958 44.0422 69.8961 44.0738 71.8108C40.1764 67.0753 36.9055 61.0506 36.9055 53.8977C37.5199 48.0684 38.1786 43.2445 38.7298 39.2082C40.7241 24.6041 41.3106 20.309 33.2946 16C22.7196 17.3068 23.5262 34.5 26.8465 50.5C26.8465 61.7742 36.0005 71.4353 44.2133 77.4449C44.4607 84.9165 44.9461 91.9559 45.6267 98.3375C51.2284 98.3929 57.1324 98.6354 63.371 99.0042ZM503.329 116.947C499.201 115.768 494.911 114.563 490.417 113.358C490.255 106.519 490.248 98.4303 490.248 89.3182C487.992 79.9032 486.498 71.9263 485.69 65.1539C478.093 63.2826 470.186 55.4519 470.244 50.4094C467.026 42.7558 467.533 36.4771 474.895 35.9906C480.04 37.7409 481.618 41.6245 477.224 51.8912C477.187 55.1423 480.874 57.1948 485.092 58.4844C484.17 42.1693 488.204 34.2722 495.665 30C507.734 31.5563 507.037 44.7405 506.013 64.0935L506.013 64.0946C505.691 70.1769 505.337 76.8685 505.337 84C505.337 96.4032 504.588 107.83 503.329 116.947Z" fill="#8B8B8B"/>
<path fill-rule="evenodd" clip-rule="evenodd" d="M528.149 123.904C522.142 122.356 515.935 120.57 509.338 118.671C466.833 106.438 408.174 89.5565 283.026 102C200.464 110.209 140.26 105.186 94.7773 101.391C52.5196 97.8644 22.9689 95.3986 0 105.591L2.36524 105.673C12.896 101.399 24.864 99.6519 38.9045 99.3678C54.6829 99.0485 72.9908 100.576 94.7284 102.39L96.7726 102.56C142.023 106.333 201.721 111.089 283.125 102.995C371.034 94.2543 426.055 100.002 465.694 108.416C482.436 111.97 496.439 116 509.055 119.63L509.055 119.63L509.072 119.635C511.395 120.304 513.671 120.959 515.909 121.595C518.536 122.342 521.11 123.062 523.645 123.748L528.149 123.904Z" fill="#8B8B8B"/>
<path d="M204.026 75.8643C200.785 83.6065 197.349 91.2515 192.624 96.9718C187.899 102.692 181.905 106.464 173.526 106.464C165.088 106.464 158.48 103.541 153.977 98.5497C149.468 93.5519 147.026 86.4312 147.026 77.9643C147.026 69.4937 149.471 61.3544 154.005 55.3452C158.531 49.3468 165.139 45.4643 173.526 45.4643C190.338 45.4643 203.972 59.0656 204.026 75.8643Z" stroke="#8B8B8B"/>
<path d="M201.026 75C201.026 83.4929 199.071 91.1273 195.043 96.6248C191.031 102.102 184.933 105.5 176.526 105.5C159.682 105.5 146.026 91.8447 146.026 75C146.026 66.4388 146.626 58.5405 149.309 52.7912C150.645 49.9294 152.49 47.6164 155.024 46.0151C157.558 44.4133 160.82 43.5 165.026 43.5C173.452 43.5 182.466 47.1662 189.375 52.9627C196.286 58.7605 201.026 66.6319 201.026 75Z" stroke="#8B8B8B"/>
<path d="M192.506 96.8348C184.799 100.159 177.019 103.277 169.647 104.116C162.275 104.955 155.343 103.51 149.311 97.6946C143.236 91.8379 140.508 85.1469 140.731 78.4283C140.954 71.7009 144.138 64.8797 150.014 58.7844C155.89 52.6903 162.234 49.6265 168.586 49.5104C174.939 49.3944 181.391 52.2246 187.485 58.1C193.599 63.9947 197.738 70.7014 198.9 77.4165C200.053 84.0804 198.286 90.8018 192.506 96.8348Z" stroke="#8B8B8B"/>
<path d="M193.026 78.5C193.026 86.4271 192.126 92.6711 189.342 96.9298C186.592 101.136 181.934 103.5 174.142 103.5C158.571 103.5 146.026 92.6678 146.026 77.1091C146.026 73.1363 146.049 69.6683 146.326 66.6909C146.603 63.7118 147.133 61.2674 148.122 59.3284C149.103 57.4057 150.546 55.9622 152.695 54.9901C154.86 54.0109 157.766 53.5 161.68 53.5C169.488 53.5 177.343 55.879 183.234 60.1998C189.117 64.5147 193.026 70.7504 193.026 78.5Z" stroke="#8B8B8B"/>
<path d="M153.39 68.6995C150.153 74.7444 148.386 79.8978 149.029 84.3984C149.666 88.8515 152.689 92.8024 159.39 96.3909C172.791 103.568 187.934 101.009 194.25 89.2156C195.875 86.1824 197.27 83.5303 198.247 81.1368C199.224 78.7428 199.763 76.6494 199.708 74.7333C199.599 70.9748 197.182 67.6733 190.454 64.07C183.748 60.4787 176.032 58.6862 169.213 59.278C162.4 59.8692 156.534 62.83 153.39 68.6995Z" stroke="#8B8B8B"/>
<path d="M180.518 52.6963C175.264 52.6355 171.176 53.4589 168.366 56.0819C165.558 58.7023 163.91 63.2287 163.822 70.8663C163.734 78.4819 165.472 85.3664 168.511 90.3447C171.548 95.3204 175.851 98.3507 180.916 98.4093C183.565 98.4399 185.856 98.4443 187.821 98.2001C189.782 97.9564 191.371 97.4698 192.633 96.5512C195.139 94.7282 196.56 91.0449 196.649 83.372C196.737 75.744 195.234 68.0596 192.418 62.2858C189.594 56.4955 185.523 52.7541 180.518 52.6963Z" stroke="#8B8B8B"/>
<path d="M182.888 87.8281C180.34 93.146 175.928 95.9999 170.8 96.894C165.653 97.7912 159.775 96.7133 154.368 94.1224C151.678 92.8336 149.817 91.3734 148.601 89.7639C147.39 88.1601 146.799 86.3819 146.69 84.4173C146.471 80.4787 148.184 75.8009 150.78 70.3677C153.092 68.6986 154.975 66.834 156.656 65.0693C157.034 64.6725 157.4 64.2822 157.758 63.9009C159.028 62.5485 160.192 61.3086 161.39 60.2883C162.916 58.9899 164.447 58.0928 166.23 57.8145C168.012 57.5364 170.111 57.8656 172.789 59.1486C183.497 64.2796 188.019 77.1198 182.888 87.8281Z" stroke="#8B8B8B"/>
<path d="M183.899 83.2465C181.944 87.3256 179.836 89.5091 177.308 90.2612C174.763 91.0182 171.642 90.3731 167.543 88.4091C159.6 84.6033 156.868 73.9235 160.698 65.8698C163.799 61.7404 166.263 59.2037 168.91 58.1394C171.52 57.0899 174.413 57.4367 178.483 59.387C182.425 61.2757 184.757 65.1778 185.612 69.6802C186.468 74.1832 185.829 79.2173 183.899 83.2465Z" stroke="#8B8B8B"/>
<path d="M180.327 76.3482C180.955 79.8934 180.171 83.855 178.33 87.0875C176.49 90.3197 173.628 92.7678 170.142 93.3852C166.655 94.0027 163.127 92.6861 160.289 90.2824C157.45 87.8784 155.353 84.427 154.725 80.8819C154.109 77.3996 155.579 73.3294 158.162 69.9366C160.744 66.5463 164.355 63.9432 167.865 63.3217C171.32 62.7098 174.087 64.1268 176.181 66.6256C178.288 69.141 179.687 72.7331 180.327 76.3482Z" stroke="#8B8B8B"/>
<path d="M176.922 82.2811C176.078 85.781 173.773 89.0973 170.792 91.3226C167.812 93.5476 164.209 94.6452 160.767 93.815C157.325 92.9848 154.619 90.3658 152.98 87.0267C151.342 83.6874 150.802 79.6851 151.646 76.1851C152.476 72.7473 155.452 69.6061 159.178 67.5315C162.901 65.4586 167.253 64.519 170.717 65.3546C174.129 66.1774 176.097 68.5838 177.015 71.7117C177.939 74.8603 177.782 78.712 176.922 82.2811Z" stroke="#8B8B8B"/>
</svg>
