<svg width="24" height="5" viewBox="0 0 24 5" fill="none" xmlns="http://www.w3.org/2000/svg">
<path fill-rule="evenodd" clip-rule="evenodd" d="M4.7188 2.50729C4.7188 3.73528 3.72332 4.73076 2.49533 4.73076C1.26733 4.73076 0.271851 3.73528 0.271851 2.50729C0.271851 1.2793 1.26733 0.283813 2.49533 0.283813C3.72332 0.283813 4.7188 1.2793 4.7188 2.50729ZM14.248 2.50729C14.248 3.73528 13.2525 4.73076 12.0245 4.73076C10.7965 4.73076 9.80103 3.73528 9.80103 2.50729C9.80103 1.2793 10.7965 0.283813 12.0245 0.283813C13.2525 0.283813 14.248 1.2793 14.248 2.50729ZM21.5537 4.73076C22.7817 4.73076 23.7771 3.73528 23.7771 2.50729C23.7771 1.2793 22.7817 0.283813 21.5537 0.283813C20.3257 0.283813 19.3302 1.2793 19.3302 2.50729C19.3302 3.73528 20.3257 4.73076 21.5537 4.73076Z" fill="#4D2A6B"/>
</svg>
