<svg width="32" height="24" viewBox="0 0 32 24" fill="none" xmlns="http://www.w3.org/2000/svg">
<mask id="path-1-inside-1_103_85" fill="white">
<path fill-rule="evenodd" clip-rule="evenodd" d="M15.6733 3.7498C15.5976 3.63813 15.5216 3.53309 15.4456 3.43508C12.6107 -0.217364 7.35167 -0.880141 3.69922 1.95473C0.0467696 4.7896 -0.616007 10.0486 2.21887 13.7011C4.84165 17.0803 12.4087 24.8769 16.4188 23.7796C20.6731 22.9206 26.9692 16.4513 29.2632 13.4957C32.0981 9.84327 31.4353 4.58426 27.7829 1.74938C24.1304 -1.08549 18.8714 -0.422713 16.0365 3.22974C15.9156 3.38551 15.7944 3.5594 15.6733 3.7498Z"/>
</mask>
<path d="M15.4456 3.43508L13.0756 5.27451L13.0756 5.27451L15.4456 3.43508ZM15.6733 3.7498L13.1906 5.43379L15.7543 9.21368L18.2049 5.35944L15.6733 3.7498ZM3.69922 1.95473L5.53865 4.32465V4.32465L3.69922 1.95473ZM2.21887 13.7011L4.58878 11.8616L2.21887 13.7011ZM16.4188 23.7796L15.825 20.8389L15.7252 20.8591L15.6269 20.886L16.4188 23.7796ZM29.2632 13.4957L26.8933 11.6563L29.2632 13.4957ZM27.7829 1.74938L25.9434 4.1193L27.7829 1.74938ZM16.0365 3.22974L18.4065 5.06917L18.4065 5.06916L16.0365 3.22974ZM13.0756 5.27451C13.1086 5.31695 13.147 5.36964 13.1906 5.43379L18.1561 2.0658C18.0481 1.90662 17.9347 1.74924 17.8155 1.59565L13.0756 5.27451ZM5.53865 4.32465C7.88223 2.50566 11.2567 2.93093 13.0756 5.27451L17.8155 1.59566C13.9647 -3.36566 6.82111 -4.26595 1.85979 -0.415185L5.53865 4.32465ZM4.58878 11.8616C2.7698 9.51806 3.19507 6.14363 5.53865 4.32465L1.85979 -0.415185C-3.10153 3.43557 -4.00181 10.5792 -0.151052 15.5405L4.58878 11.8616ZM15.6269 20.886C15.6777 20.872 15.2751 20.9651 14.1729 20.4372C13.1626 19.9534 11.969 19.1407 10.7025 18.1006C8.17508 16.0251 5.78068 13.3973 4.58878 11.8616L-0.151052 15.5405C1.27984 17.3841 3.98036 20.3442 6.89468 22.7375C8.34903 23.9318 9.96304 25.0737 11.5813 25.8487C13.1077 26.5796 15.1548 27.2358 17.2106 26.6732L15.6269 20.886ZM17.0125 26.7202C18.5903 26.4017 20.139 25.6222 21.5002 24.7623C22.8961 23.8804 24.2805 22.7942 25.552 21.6813C28.0842 19.465 30.3646 16.9695 31.6331 15.3351L26.8933 11.6563C25.8679 12.9775 23.8533 15.1945 21.6003 17.1664C20.4792 18.1477 19.3486 19.0245 18.2957 19.6897C17.2081 20.3767 16.3744 20.728 15.825 20.8389L17.0125 26.7202ZM31.6331 15.3351C35.4839 10.3738 34.5836 3.23023 29.6223 -0.620534L25.9434 4.1193C28.287 5.93829 28.7123 9.31271 26.8933 11.6563L31.6331 15.3351ZM29.6223 -0.620534C24.661 -4.47129 17.5174 -3.57101 13.6666 1.39031L18.4065 5.06916C20.2254 2.72558 23.5999 2.30032 25.9434 4.1193L29.6223 -0.620534ZM13.6666 1.39031C13.4795 1.63142 13.3047 1.88376 13.1417 2.14015L18.2049 5.35944C18.284 5.23503 18.3518 5.13959 18.4065 5.06917L13.6666 1.39031Z" fill="#4D2A6B" mask="url(#path-1-inside-1_103_85)"/>
</svg>
