<svg width="261" height="112" viewBox="0 0 261 112" fill="none" xmlns="http://www.w3.org/2000/svg">
<rect x="1" y="1" width="259" height="110" rx="10" fill="#F7F7F7" stroke="#4D2A6B" stroke-width="2"/>
<path d="M170.549 83V69H177.069C178.695 69 179.962 69.3133 180.869 69.94C181.775 70.5667 182.229 71.46 182.229 72.62C182.229 73.7667 181.802 74.66 180.949 75.3C180.095 75.9267 178.962 76.24 177.549 76.24L177.929 75.4C179.502 75.4 180.722 75.7133 181.589 76.34C182.455 76.9667 182.889 77.8733 182.889 79.06C182.889 80.2867 182.422 81.2533 181.489 81.96C180.569 82.6533 179.222 83 177.449 83H170.549ZM173.769 80.6H177.329C178.075 80.6 178.642 80.4533 179.029 80.16C179.415 79.8667 179.609 79.4133 179.609 78.8C179.609 78.2133 179.415 77.78 179.029 77.5C178.642 77.2067 178.075 77.06 177.329 77.06H173.769V80.6ZM173.769 74.8H176.789C177.495 74.8 178.029 74.66 178.389 74.38C178.749 74.0867 178.929 73.66 178.929 73.1C178.929 72.54 178.749 72.12 178.389 71.84C178.029 71.5467 177.495 71.4 176.789 71.4H173.769V74.8ZM196.291 83V72.24H199.391V83H196.291ZM190.871 75.68C192.284 75.6933 193.344 76.0133 194.051 76.64C194.771 77.2533 195.131 78.1267 195.131 79.26C195.131 80.4467 194.724 81.3733 193.911 82.04C193.098 82.6933 191.944 83.02 190.451 83.02L185.211 83V72.24H188.311V75.68H190.871ZM190.171 80.8C190.771 80.8133 191.231 80.6867 191.551 80.42C191.871 80.1533 192.031 79.7533 192.031 79.22C192.031 78.6867 191.871 78.3067 191.551 78.08C191.231 77.84 190.771 77.7133 190.171 77.7L188.311 77.68V80.8H190.171ZM202.398 83V72.24H205.498V78.64L210.738 72.24H213.598V83H210.498V76.6L205.278 83H202.398ZM207.798 71.08C206.625 71.08 205.745 70.8267 205.158 70.32C204.572 69.8 204.272 69.02 204.258 67.98H206.298C206.312 68.4333 206.438 68.7933 206.678 69.06C206.918 69.3267 207.285 69.46 207.778 69.46C208.258 69.46 208.625 69.3267 208.878 69.06C209.145 68.7933 209.278 68.4333 209.278 67.98H211.358C211.358 69.02 211.058 69.8 210.458 70.32C209.858 70.8267 208.972 71.08 207.798 71.08ZM218.898 83V74.08L219.598 74.8H215.258V72.24H225.638V74.8H221.298L221.998 74.08V83H218.898ZM227.301 83V72.24H230.401V78.64L235.641 72.24H238.501V83H235.401V76.6L230.181 83H227.301Z" fill="#4D2A6B"/>
<path d="M92.2673 42V28H94.9473L100.907 37.88H99.4873L105.347 28H108.027L108.047 42H105.007L104.987 32.66H105.567L100.867 40.52H99.4273L94.6273 32.66H95.3073V42H92.2673ZM116.325 42.16C115.178 42.16 114.158 41.92 113.265 41.44C112.385 40.96 111.685 40.3067 111.165 39.48C110.658 38.64 110.405 37.6867 110.405 36.62C110.405 35.54 110.658 34.5867 111.165 33.76C111.685 32.92 112.385 32.2667 113.265 31.8C114.158 31.32 115.178 31.08 116.325 31.08C117.458 31.08 118.472 31.32 119.365 31.8C120.258 32.2667 120.958 32.9133 121.465 33.74C121.972 34.5667 122.225 35.5267 122.225 36.62C122.225 37.6867 121.972 38.64 121.465 39.48C120.958 40.3067 120.258 40.96 119.365 41.44C118.472 41.92 117.458 42.16 116.325 42.16ZM116.325 39.6C116.845 39.6 117.312 39.48 117.725 39.24C118.138 39 118.465 38.66 118.705 38.22C118.945 37.7667 119.065 37.2333 119.065 36.62C119.065 35.9933 118.945 35.46 118.705 35.02C118.465 34.58 118.138 34.24 117.725 34C117.312 33.76 116.845 33.64 116.325 33.64C115.805 33.64 115.338 33.76 114.925 34C114.512 34.24 114.178 34.58 113.925 35.02C113.685 35.46 113.565 35.9933 113.565 36.62C113.565 37.2333 113.685 37.7667 113.925 38.22C114.178 38.66 114.512 39 114.925 39.24C115.338 39.48 115.805 39.6 116.325 39.6ZM124.371 42V31.24H127.471V37.64L132.711 31.24H135.571V42H132.471V35.6L127.251 42H124.371ZM129.771 30.08C128.598 30.08 127.718 29.8267 127.131 29.32C126.544 28.8 126.244 28.02 126.231 26.98H128.271C128.284 27.4333 128.411 27.7933 128.651 28.06C128.891 28.3267 129.258 28.46 129.751 28.46C130.231 28.46 130.598 28.3267 130.851 28.06C131.118 27.7933 131.251 27.4333 131.251 26.98H133.331C133.331 28.02 133.031 28.8 132.431 29.32C131.831 29.8267 130.944 30.08 129.771 30.08ZM144.234 42V31.24H154.934V42H151.814V33.1L152.514 33.8H146.634L147.334 33.1V42H144.234ZM164.266 42.16C163.359 42.16 162.566 41.96 161.886 41.56C161.206 41.16 160.672 40.5533 160.286 39.74C159.912 38.9133 159.726 37.8733 159.726 36.62C159.726 35.3533 159.906 34.3133 160.266 33.5C160.626 32.6867 161.146 32.08 161.826 31.68C162.506 31.28 163.319 31.08 164.266 31.08C165.279 31.08 166.186 31.3133 166.986 31.78C167.799 32.2333 168.439 32.8733 168.906 33.7C169.386 34.5267 169.626 35.5 169.626 36.62C169.626 37.7533 169.386 38.7333 168.906 39.56C168.439 40.3867 167.799 41.0267 166.986 41.48C166.186 41.9333 165.279 42.16 164.266 42.16ZM157.906 45.88V31.24H160.886V33.44L160.826 36.64L161.026 39.82V45.88H157.906ZM163.726 39.6C164.246 39.6 164.706 39.48 165.106 39.24C165.519 39 165.846 38.66 166.086 38.22C166.339 37.7667 166.466 37.2333 166.466 36.62C166.466 35.9933 166.339 35.46 166.086 35.02C165.846 34.58 165.519 34.24 165.106 34C164.706 33.76 164.246 33.64 163.726 33.64C163.206 33.64 162.739 33.76 162.326 34C161.912 34.24 161.586 34.58 161.346 35.02C161.106 35.46 160.986 35.9933 160.986 36.62C160.986 37.2333 161.106 37.7667 161.346 38.22C161.586 38.66 161.912 39 162.326 39.24C162.739 39.48 163.206 39.6 163.726 39.6ZM176.853 42.16C175.706 42.16 174.686 41.92 173.793 41.44C172.913 40.96 172.213 40.3067 171.693 39.48C171.186 38.64 170.933 37.6867 170.933 36.62C170.933 35.54 171.186 34.5867 171.693 33.76C172.213 32.92 172.913 32.2667 173.793 31.8C174.686 31.32 175.706 31.08 176.853 31.08C177.986 31.08 178.999 31.32 179.893 31.8C180.786 32.2667 181.486 32.9133 181.993 33.74C182.499 34.5667 182.753 35.5267 182.753 36.62C182.753 37.6867 182.499 38.64 181.993 39.48C181.486 40.3067 180.786 40.96 179.893 41.44C178.999 41.92 177.986 42.16 176.853 42.16ZM176.853 39.6C177.373 39.6 177.839 39.48 178.253 39.24C178.666 39 178.993 38.66 179.233 38.22C179.473 37.7667 179.593 37.2333 179.593 36.62C179.593 35.9933 179.473 35.46 179.233 35.02C178.993 34.58 178.666 34.24 178.253 34C177.839 33.76 177.373 33.64 176.853 33.64C176.333 33.64 175.866 33.76 175.452 34C175.039 34.24 174.706 34.58 174.453 35.02C174.213 35.46 174.093 35.9933 174.093 36.62C174.093 37.2333 174.213 37.7667 174.453 38.22C174.706 38.66 175.039 39 175.452 39.24C175.866 39.48 176.333 39.6 176.853 39.6ZM192.138 42.24C192.112 42.24 192.038 42.24 191.918 42.24C191.798 42.24 191.685 42.24 191.578 42.24C191.472 42.24 191.398 42.24 191.358 42.24C189.025 42.2 187.218 41.7 185.938 40.74C184.658 39.78 184.018 38.3933 184.018 36.58C184.018 34.7933 184.652 33.4333 185.918 32.5C187.198 31.5533 189.032 31.0733 191.418 31.06C191.445 31.06 191.512 31.06 191.618 31.06C191.738 31.06 191.852 31.06 191.958 31.06C192.065 31.06 192.132 31.06 192.158 31.06C194.572 31.06 196.438 31.5267 197.758 32.46C199.092 33.3933 199.758 34.7667 199.758 36.58C199.758 38.42 199.092 39.8267 197.758 40.8C196.438 41.76 194.565 42.24 192.138 42.24ZM192.038 39.84C193.145 39.84 194.045 39.7267 194.738 39.5C195.432 39.26 195.938 38.9 196.258 38.42C196.592 37.9267 196.758 37.3133 196.758 36.58C196.758 35.8733 196.598 35.2933 196.278 34.84C195.958 34.3733 195.445 34.0267 194.738 33.8C194.045 33.5733 193.145 33.46 192.038 33.46C191.998 33.46 191.918 33.46 191.798 33.46C191.678 33.46 191.598 33.46 191.558 33.46C190.492 33.46 189.625 33.58 188.958 33.82C188.292 34.06 187.805 34.4067 187.498 34.86C187.192 35.3133 187.038 35.8867 187.038 36.58C187.038 37.3 187.192 37.9 187.498 38.38C187.805 38.86 188.292 39.22 188.958 39.46C189.625 39.7 190.492 39.8267 191.558 39.84C191.598 39.84 191.678 39.84 191.798 39.84C191.918 39.84 191.998 39.84 192.038 39.84ZM190.458 45.88V27.16H193.318V45.88H190.458ZM201.871 42V31.24H204.971V37.64L210.211 31.24H213.071V42H209.971V35.6L204.751 42H201.871ZM214.71 41.98L214.87 39.42C214.95 39.4333 215.03 39.4467 215.11 39.46C215.19 39.46 215.264 39.46 215.33 39.46C215.704 39.46 215.997 39.3533 216.21 39.14C216.424 38.9267 216.584 38.64 216.69 38.28C216.797 37.9067 216.87 37.4867 216.91 37.02C216.964 36.5533 217.004 36.0667 217.03 35.56L217.19 31.24H226.39V42H223.27V33.04L223.97 33.8H219.25L219.91 33L219.77 35.7C219.73 36.66 219.65 37.54 219.53 38.34C219.424 39.14 219.244 39.8333 218.99 40.42C218.737 40.9933 218.397 41.44 217.97 41.76C217.544 42.0667 216.997 42.22 216.33 42.22C216.09 42.22 215.837 42.2 215.57 42.16C215.304 42.12 215.017 42.06 214.71 41.98ZM235.211 34.68C236.624 34.6933 237.697 35.0133 238.431 35.64C239.177 36.2533 239.551 37.1267 239.551 38.26C239.551 39.4467 239.131 40.3733 238.291 41.04C237.451 41.6933 236.284 42.02 234.791 42.02L229.391 42V31.24H232.491V34.68H235.211ZM234.511 39.8C235.111 39.8133 235.571 39.6867 235.891 39.42C236.211 39.1533 236.371 38.7533 236.371 38.22C236.371 37.6867 236.211 37.3067 235.891 37.08C235.571 36.84 235.111 36.7133 234.511 36.7L232.491 36.68V39.8H234.511Z" fill="#4D2A6B"/>
</svg>
