<svg width="51" height="18" viewBox="0 0 51 18" fill="none" xmlns="http://www.w3.org/2000/svg">
<path d="M0.556538 14.9795V0.979491H6.81654C8.38987 0.979491 9.61654 1.29282 10.4965 1.91949C11.3765 2.53282 11.8165 3.41949 11.8165 4.57949C11.8165 5.72616 11.3965 6.61283 10.5565 7.23949C9.71654 7.85283 8.60987 8.15949 7.23654 8.15949L7.59654 7.43949C9.15654 7.43949 10.3632 7.75283 11.2165 8.37949C12.0699 9.00616 12.4965 9.91283 12.4965 11.0995C12.4965 12.3128 12.0499 13.2662 11.1565 13.9595C10.2632 14.6395 8.94321 14.9795 7.19654 14.9795H0.556538ZM3.11654 12.9795H7.11654C8.02321 12.9795 8.70987 12.8128 9.17654 12.4795C9.6432 12.1328 9.87654 11.6062 9.87654 10.8995C9.87654 10.1928 9.6432 9.67949 9.17654 9.35949C8.70987 9.02616 8.02321 8.85949 7.11654 8.85949H3.11654V12.9795ZM3.11654 6.95949H6.59654C7.43654 6.95949 8.07654 6.79283 8.51654 6.45949C8.95654 6.11283 9.17654 5.61949 9.17654 4.97949C9.17654 4.31283 8.95654 3.81283 8.51654 3.47949C8.07654 3.14616 7.43654 2.97949 6.59654 2.97949H3.11654V6.95949ZM13.5984 14.9795L18.2984 8.85949L18.2584 10.1995L13.7784 4.29949H16.5584L19.6984 8.49949H18.6384L21.7984 4.29949H24.4984L19.9784 10.1995L19.9984 8.85949L24.6784 14.9795H21.8584L18.5584 10.5195L19.5984 10.6595L16.3584 14.9795H13.5984ZM30.8759 15.1195C29.7826 15.1195 28.8092 14.8862 27.9559 14.4195C27.1026 13.9395 26.4292 13.2862 25.9359 12.4595C25.4426 11.6328 25.1959 10.6928 25.1959 9.63949C25.1959 8.57283 25.4426 7.63283 25.9359 6.81949C26.4292 5.99282 27.1026 5.34616 27.9559 4.87949C28.8092 4.41283 29.7826 4.17949 30.8759 4.17949C31.9826 4.17949 32.9626 4.41283 33.8159 4.87949C34.6826 5.34616 35.3559 5.98616 35.8359 6.79949C36.3292 7.61283 36.5759 8.55949 36.5759 9.63949C36.5759 10.6928 36.3292 11.6328 35.8359 12.4595C35.3559 13.2862 34.6826 13.9395 33.8159 14.4195C32.9626 14.8862 31.9826 15.1195 30.8759 15.1195ZM30.8759 12.9795C31.4892 12.9795 32.0359 12.8462 32.5159 12.5795C32.9959 12.3128 33.3692 11.9262 33.6359 11.4195C33.9159 10.9128 34.0559 10.3195 34.0559 9.63949C34.0559 8.94616 33.9159 8.35283 33.6359 7.85949C33.3692 7.35283 32.9959 6.96616 32.5159 6.69949C32.0359 6.43283 31.4959 6.29949 30.8959 6.29949C30.2826 6.29949 29.7359 6.43283 29.2559 6.69949C28.7892 6.96616 28.4159 7.35283 28.1359 7.85949C27.8559 8.35283 27.7159 8.94616 27.7159 9.63949C27.7159 10.3195 27.8559 10.9128 28.1359 11.4195C28.4159 11.9262 28.7892 12.3128 29.2559 12.5795C29.7359 12.8462 30.2759 12.9795 30.8759 12.9795ZM46.2484 13.8195V6.41949H42.1484L42.0884 8.13949C42.0617 8.75283 42.0217 9.34616 41.9684 9.91949C41.9151 10.4795 41.8284 10.9995 41.7084 11.4795C41.5884 11.9462 41.4151 12.3328 41.1884 12.6395C40.9617 12.9462 40.6617 13.1462 40.2884 13.2395L37.8084 12.8595C38.2084 12.8595 38.5284 12.7328 38.7684 12.4795C39.0217 12.2128 39.2151 11.8528 39.3484 11.3995C39.4951 10.9328 39.6017 10.4062 39.6684 9.81949C39.7351 9.21949 39.7817 8.59949 39.8084 7.95949L39.9484 4.29949H48.7484V13.8195H46.2484ZM37.4284 17.3595V12.8595H50.3284V17.3595H47.9884V14.9795H39.7484V17.3595H37.4284Z" fill="#F7F7F7"/>
</svg>
