<svg width="68" height="12" viewBox="0 0 68 12" fill="none" xmlns="http://www.w3.org/2000/svg">
<path d="M0.135 11L4.86 0.499999H6.78L11.52 11H9.48L5.415 1.535H6.195L2.145 11H0.135ZM2.31 8.57L2.835 7.04H8.505L9.03 8.57H2.31ZM18.6652 11L15.7702 7.16L17.3002 6.215L20.8702 11H18.6652ZM12.9202 11V2.99H14.7952V11H12.9202ZM14.2402 7.79V6.23H16.9552V7.79H14.2402ZM17.4802 7.22L15.7252 7.01L18.6652 2.99H20.6752L17.4802 7.22ZM23.7551 11V4.13L24.1901 4.58H20.9351V2.99H28.4351V4.58H25.1951L25.6301 4.13V11H23.7551ZM29.7952 11V2.99H31.6702V8.27L36.0952 2.99H37.8052V11H35.9302V5.72L31.5202 11H29.7952ZM40.3274 11V2.99H44.2424C45.2124 2.99 45.9724 3.17 46.5224 3.53C47.0824 3.89 47.3624 4.4 47.3624 5.06C47.3624 5.71 47.1024 6.22 46.5824 6.59C46.0624 6.95 45.3724 7.13 44.5124 7.13L44.7374 6.665C45.7074 6.665 46.4274 6.845 46.8974 7.205C47.3774 7.555 47.6174 8.07 47.6174 8.75C47.6174 9.46 47.3524 10.015 46.8224 10.415C46.2924 10.805 45.4874 11 44.4074 11H40.3274ZM42.1124 9.635H44.2574C44.7674 9.635 45.1524 9.555 45.4124 9.395C45.6724 9.225 45.8024 8.97 45.8024 8.63C45.8024 8.27 45.6824 8.005 45.4424 7.835C45.2024 7.665 44.8274 7.58 44.3174 7.58H42.1124V9.635ZM42.1124 6.335H44.0774C44.5574 6.335 44.9174 6.25 45.1574 6.08C45.4074 5.9 45.5324 5.65 45.5324 5.33C45.5324 5 45.4074 4.755 45.1574 4.595C44.9174 4.435 44.5574 4.355 44.0774 4.355H42.1124V6.335ZM49.6145 11V2.99H51.4895V6.245H55.5245V2.99H57.3995V11H55.5245V7.835H51.4895V11H49.6145ZM63.4823 11.105C62.6623 11.105 61.9323 10.93 61.2923 10.58C60.6523 10.22 60.1473 9.73 59.7773 9.11C59.4073 8.49 59.2223 7.785 59.2223 6.995C59.2223 6.195 59.4073 5.49 59.7773 4.88C60.1473 4.26 60.6523 3.775 61.2923 3.425C61.9323 3.075 62.6623 2.9 63.4823 2.9C64.3123 2.9 65.0473 3.075 65.6873 3.425C66.3373 3.775 66.8423 4.255 67.2023 4.865C67.5723 5.475 67.7573 6.185 67.7573 6.995C67.7573 7.785 67.5723 8.49 67.2023 9.11C66.8423 9.73 66.3373 10.22 65.6873 10.58C65.0473 10.93 64.3123 11.105 63.4823 11.105ZM63.4823 9.5C63.9423 9.5 64.3523 9.4 64.7123 9.2C65.0723 9 65.3523 8.71 65.5523 8.33C65.7623 7.95 65.8673 7.505 65.8673 6.995C65.8673 6.475 65.7623 6.03 65.5523 5.66C65.3523 5.28 65.0723 4.99 64.7123 4.79C64.3523 4.59 63.9473 4.49 63.4973 4.49C63.0373 4.49 62.6273 4.59 62.2673 4.79C61.9173 4.99 61.6373 5.28 61.4273 5.66C61.2173 6.03 61.1123 6.475 61.1123 6.995C61.1123 7.505 61.2173 7.95 61.4273 8.33C61.6373 8.71 61.9173 9 62.2673 9.2C62.6273 9.4 63.0323 9.5 63.4823 9.5Z" fill="#F7F7F7"/>
</svg>
