<svg width="184" height="30" viewBox="0 0 184 30" fill="none" xmlns="http://www.w3.org/2000/svg">
<path d="M0.522 16.1035L1.278 14.3935C1.818 14.7655 2.406 15.0535 3.042 15.2575C3.69 15.4495 4.332 15.5515 4.968 15.5635C5.604 15.5755 6.18 15.5035 6.696 15.3475C7.224 15.1915 7.644 14.9575 7.956 14.6455C8.268 14.3335 8.424 13.9435 8.424 13.4755C8.424 12.9115 8.19 12.4915 7.722 12.2155C7.266 11.9275 6.642 11.7835 5.85 11.7835H2.916V9.94746H5.67C6.378 9.94746 6.924 9.80346 7.308 9.51546C7.704 9.22746 7.902 8.83746 7.902 8.34546C7.902 7.93746 7.77 7.60146 7.506 7.33746C7.254 7.07346 6.906 6.87546 6.462 6.74346C6.03 6.61146 5.538 6.55146 4.986 6.56346C4.446 6.56346 3.882 6.64746 3.294 6.81546C2.706 6.97146 2.148 7.20546 1.62 7.51746L0.882 5.62746C1.674 5.20746 2.502 4.91346 3.366 4.74546C4.242 4.57746 5.088 4.52946 5.904 4.60146C6.72 4.67346 7.452 4.85946 8.1 5.15946C8.76 5.45946 9.288 5.85546 9.684 6.34746C10.08 6.82746 10.278 7.39746 10.278 8.05746C10.278 8.65746 10.116 9.19146 9.792 9.65946C9.48 10.1155 9.048 10.4695 8.496 10.7215C7.944 10.9735 7.302 11.0995 6.57 11.0995L6.66 10.5235C7.488 10.5235 8.208 10.6675 8.82 10.9555C9.444 11.2315 9.924 11.6155 10.26 12.1075C10.608 12.5995 10.782 13.1695 10.782 13.8175C10.782 14.4295 10.626 14.9755 10.314 15.4555C10.002 15.9235 9.576 16.3195 9.036 16.6435C8.496 16.9555 7.878 17.1895 7.182 17.3455C6.486 17.4895 5.754 17.5435 4.986 17.5075C4.218 17.4715 3.45 17.3395 2.682 17.1115C1.926 16.8835 1.206 16.5475 0.522 16.1035ZM19.0335 17.3455V15.4015L18.9075 14.9875V11.5855C18.9075 10.9255 18.7095 10.4155 18.3135 10.0555C17.9175 9.68346 17.3175 9.49746 16.5135 9.49746C15.9735 9.49746 15.4395 9.58146 14.9115 9.74946C14.3955 9.91746 13.9575 10.1515 13.5975 10.4515L12.7155 8.81346C13.2315 8.41746 13.8435 8.12346 14.5515 7.93146C15.2715 7.72746 16.0155 7.62546 16.7835 7.62546C18.1755 7.62546 19.2495 7.96146 20.0055 8.63346C20.7735 9.29346 21.1575 10.3195 21.1575 11.7115V17.3455H19.0335ZM16.0095 17.4715C15.2895 17.4715 14.6595 17.3515 14.1195 17.1115C13.5795 16.8595 13.1595 16.5175 12.8595 16.0855C12.5715 15.6415 12.4275 15.1435 12.4275 14.5915C12.4275 14.0515 12.5535 13.5655 12.8055 13.1335C13.0695 12.7015 13.4955 12.3595 14.0835 12.1075C14.6715 11.8555 15.4515 11.7295 16.4235 11.7295H19.2135V13.2235H16.5855C15.8175 13.2235 15.3015 13.3495 15.0375 13.6015C14.7735 13.8415 14.6415 14.1415 14.6415 14.5015C14.6415 14.9095 14.8035 15.2335 15.1275 15.4735C15.4515 15.7135 15.9015 15.8335 16.4775 15.8335C17.0295 15.8335 17.5215 15.7075 17.9535 15.4555C18.3975 15.2035 18.7155 14.8315 18.9075 14.3395L19.2855 15.6895C19.0695 16.2535 18.6795 16.6915 18.1155 17.0035C17.5635 17.3155 16.8615 17.4715 16.0095 17.4715ZM28.5317 17.5255C27.7397 17.5255 27.0317 17.4055 26.4077 17.1655C25.7837 16.9255 25.2437 16.5595 24.7877 16.0675C24.3437 15.5635 24.0017 14.9275 23.7617 14.1595C23.5217 13.3915 23.4017 12.4795 23.4017 11.4235C23.4017 10.6555 23.4677 9.95346 23.5997 9.31746C23.7317 8.68146 23.9297 8.11146 24.1937 7.60746C24.4577 7.09146 24.7877 6.63546 25.1837 6.23946C25.5917 5.84346 26.0657 5.51346 26.6057 5.24946C27.1457 4.98546 27.7577 4.78146 28.4417 4.63746L32.9057 3.68346L33.2297 5.69946L29.1797 6.52746C28.9517 6.57546 28.6757 6.64746 28.3517 6.74346C28.0397 6.82746 27.7157 6.95946 27.3797 7.13946C27.0557 7.30746 26.7497 7.55346 26.4617 7.87746C26.1857 8.18946 25.9577 8.59746 25.7777 9.10146C25.6097 9.59346 25.5257 10.2115 25.5257 10.9555C25.5257 11.1835 25.5317 11.3575 25.5437 11.4775C25.5677 11.5855 25.5857 11.7055 25.5977 11.8375C25.6217 11.9575 25.6337 12.1375 25.6337 12.3775L24.7877 11.4955C25.0277 10.8835 25.3577 10.3615 25.7777 9.92946C26.2097 9.48546 26.7077 9.14946 27.2717 8.92146C27.8477 8.68146 28.4717 8.56146 29.1437 8.56146C30.0437 8.56146 30.8417 8.74746 31.5377 9.11946C32.2337 9.49146 32.7797 10.0135 33.1757 10.6855C33.5717 11.3575 33.7697 12.1195 33.7697 12.9715C33.7697 13.8595 33.5537 14.6455 33.1217 15.3295C32.6897 16.0135 32.0777 16.5535 31.2857 16.9495C30.5057 17.3335 29.5877 17.5255 28.5317 17.5255ZM28.7117 15.7075C29.2517 15.7075 29.7257 15.5935 30.1337 15.3655C30.5537 15.1255 30.8777 14.8015 31.1057 14.3935C31.3457 13.9855 31.4657 13.5295 31.4657 13.0255C31.4657 12.5215 31.3457 12.0835 31.1057 11.7115C30.8777 11.3275 30.5537 11.0215 30.1337 10.7935C29.7257 10.5655 29.2397 10.4515 28.6757 10.4515C28.1357 10.4515 27.6497 10.5595 27.2177 10.7755C26.7977 10.9915 26.4677 11.2915 26.2277 11.6755C25.9997 12.0475 25.8857 12.4795 25.8857 12.9715C25.8857 13.4755 26.0057 13.9375 26.2457 14.3575C26.4857 14.7775 26.8157 15.1075 27.2357 15.3475C27.6677 15.5875 28.1597 15.7075 28.7117 15.7075ZM45.6495 17.3455V7.73346H47.8995V17.3455H45.6495ZM40.6275 10.9015C41.8635 10.9015 42.7995 11.1775 43.4355 11.7295C44.0835 12.2815 44.4075 13.0615 44.4075 14.0695C44.4075 15.1135 44.0475 15.9295 43.3275 16.5175C42.6195 17.0935 41.6115 17.3755 40.3035 17.3635L35.9475 17.3455V7.73346H38.1975V10.8835L40.6275 10.9015ZM40.1055 15.7075C40.7655 15.7195 41.2695 15.5815 41.6175 15.2935C41.9655 15.0055 42.1395 14.5855 42.1395 14.0335C42.1395 13.4815 41.9655 13.0855 41.6175 12.8455C41.2815 12.5935 40.7775 12.4615 40.1055 12.4495L38.1975 12.4315V15.6895L40.1055 15.7075ZM49.5201 17.3275L49.6281 15.4375C49.7121 15.4495 49.7901 15.4615 49.8621 15.4735C49.9341 15.4855 50.0001 15.4915 50.0601 15.4915C50.4321 15.4915 50.7201 15.3775 50.9241 15.1495C51.1281 14.9215 51.2781 14.6155 51.3741 14.2315C51.4821 13.8355 51.5541 13.3975 51.5901 12.9175C51.6381 12.4255 51.6741 11.9335 51.6981 11.4415L51.8601 7.73346H59.6361V17.3455H57.3861V9.02946L57.9081 9.64146H53.3361L53.8221 9.01146L53.6961 11.5495C53.6601 12.4015 53.5881 13.1935 53.4801 13.9255C53.3841 14.6455 53.2281 15.2755 53.0121 15.8155C52.8081 16.3555 52.5201 16.7755 52.1481 17.0755C51.7881 17.3755 51.3261 17.5255 50.7621 17.5255C50.5821 17.5255 50.3841 17.5075 50.1681 17.4715C49.9641 17.4355 49.7481 17.3875 49.5201 17.3275ZM62.6663 17.3455V7.73346H64.9163V14.0695L70.2263 7.73346H72.2783V17.3455H70.0283V11.0095L64.7363 17.3455H62.6663ZM80.2796 17.3455V7.73346H89.4956V17.3455H87.2636V9.11946L87.7856 9.64146H82.0076L82.5296 9.11946V17.3455H80.2796ZM98.3635 17.3455V15.4015L98.2375 14.9875V11.5855C98.2375 10.9255 98.0395 10.4155 97.6435 10.0555C97.2475 9.68346 96.6475 9.49746 95.8435 9.49746C95.3035 9.49746 94.7695 9.58146 94.2415 9.74946C93.7255 9.91746 93.2875 10.1515 92.9275 10.4515L92.0455 8.81346C92.5615 8.41746 93.1735 8.12346 93.8815 7.93146C94.6015 7.72746 95.3455 7.62546 96.1135 7.62546C97.5055 7.62546 98.5795 7.96146 99.3355 8.63346C100.104 9.29346 100.488 10.3195 100.488 11.7115V17.3455H98.3635ZM95.3395 17.4715C94.6195 17.4715 93.9895 17.3515 93.4495 17.1115C92.9095 16.8595 92.4895 16.5175 92.1895 16.0855C91.9015 15.6415 91.7575 15.1435 91.7575 14.5915C91.7575 14.0515 91.8835 13.5655 92.1355 13.1335C92.3995 12.7015 92.8255 12.3595 93.4135 12.1075C94.0015 11.8555 94.7815 11.7295 95.7535 11.7295H98.5435V13.2235H95.9155C95.1475 13.2235 94.6315 13.3495 94.3675 13.6015C94.1035 13.8415 93.9715 14.1415 93.9715 14.5015C93.9715 14.9095 94.1335 15.2335 94.4575 15.4735C94.7815 15.7135 95.2315 15.8335 95.8075 15.8335C96.3595 15.8335 96.8515 15.7075 97.2835 15.4555C97.7275 15.2035 98.0455 14.8315 98.2375 14.3395L98.6155 15.6895C98.3995 16.2535 98.0095 16.6915 97.4455 17.0035C96.8935 17.3155 96.1915 17.4715 95.3395 17.4715ZM108.6 17.4715C107.82 17.4715 107.106 17.2915 106.458 16.9315C105.822 16.5715 105.312 16.0315 104.928 15.3115C104.556 14.5795 104.37 13.6555 104.37 12.5395C104.37 11.4115 104.55 10.4875 104.91 9.76746C105.282 9.04746 105.786 8.51346 106.422 8.16546C107.058 7.80546 107.784 7.62546 108.6 7.62546C109.548 7.62546 110.382 7.82946 111.102 8.23746C111.834 8.64546 112.41 9.21546 112.83 9.94746C113.262 10.6795 113.478 11.5435 113.478 12.5395C113.478 13.5355 113.262 14.4055 112.83 15.1495C112.41 15.8815 111.834 16.4515 111.102 16.8595C110.382 17.2675 109.548 17.4715 108.6 17.4715ZM103.272 20.8375V7.73346H105.414V10.0015L105.342 12.5575L105.522 15.1135V20.8375H103.272ZM108.348 15.5455C108.888 15.5455 109.368 15.4255 109.788 15.1855C110.22 14.9455 110.562 14.5975 110.814 14.1415C111.066 13.6855 111.192 13.1515 111.192 12.5395C111.192 11.9155 111.066 11.3815 110.814 10.9375C110.562 10.4815 110.22 10.1335 109.788 9.89346C109.368 9.65346 108.888 9.53346 108.348 9.53346C107.808 9.53346 107.322 9.65346 106.89 9.89346C106.458 10.1335 106.116 10.4815 105.864 10.9375C105.612 11.3815 105.486 11.9155 105.486 12.5395C105.486 13.1515 105.612 13.6855 105.864 14.1415C106.116 14.5975 106.458 14.9455 106.89 15.1855C107.322 15.4255 107.808 15.5455 108.348 15.5455ZM120.001 17.4715C119.017 17.4715 118.141 17.2615 117.373 16.8415C116.605 16.4095 115.999 15.8215 115.555 15.0775C115.111 14.3335 114.889 13.4875 114.889 12.5395C114.889 11.5795 115.111 10.7335 115.555 10.0015C115.999 9.25746 116.605 8.67546 117.373 8.25546C118.141 7.83546 119.017 7.62546 120.001 7.62546C120.997 7.62546 121.879 7.83546 122.647 8.25546C123.427 8.67546 124.033 9.25146 124.465 9.98346C124.909 10.7155 125.131 11.5675 125.131 12.5395C125.131 13.4875 124.909 14.3335 124.465 15.0775C124.033 15.8215 123.427 16.4095 122.647 16.8415C121.879 17.2615 120.997 17.4715 120.001 17.4715ZM120.001 15.5455C120.553 15.5455 121.045 15.4255 121.477 15.1855C121.909 14.9455 122.245 14.5975 122.485 14.1415C122.737 13.6855 122.863 13.1515 122.863 12.5395C122.863 11.9155 122.737 11.3815 122.485 10.9375C122.245 10.4815 121.909 10.1335 121.477 9.89346C121.045 9.65346 120.559 9.53346 120.019 9.53346C119.467 9.53346 118.975 9.65346 118.543 9.89346C118.123 10.1335 117.787 10.4815 117.535 10.9375C117.283 11.3815 117.157 11.9155 117.157 12.5395C117.157 13.1515 117.283 13.6855 117.535 14.1415C117.787 14.5975 118.123 14.9455 118.543 15.1855C118.975 15.4255 119.461 15.5455 120.001 15.5455ZM125.844 17.3275L125.952 15.4375C126.036 15.4495 126.114 15.4615 126.186 15.4735C126.258 15.4855 126.324 15.4915 126.384 15.4915C126.756 15.4915 127.044 15.3775 127.248 15.1495C127.452 14.9215 127.602 14.6155 127.698 14.2315C127.806 13.8355 127.878 13.3975 127.914 12.9175C127.962 12.4255 127.998 11.9335 128.022 11.4415L128.184 7.73346H135.96V17.3455H133.71V9.02946L134.232 9.64146H129.66L130.146 9.01146L130.02 11.5495C129.984 12.4015 129.912 13.1935 129.804 13.9255C129.708 14.6455 129.552 15.2755 129.336 15.8155C129.132 16.3555 128.844 16.7755 128.472 17.0755C128.112 17.3755 127.65 17.5255 127.086 17.5255C126.906 17.5255 126.708 17.5075 126.492 17.4715C126.288 17.4355 126.072 17.3875 125.844 17.3275ZM143.815 10.9015C145.051 10.9015 145.993 11.1775 146.641 11.7295C147.289 12.2815 147.613 13.0615 147.613 14.0695C147.613 15.1135 147.253 15.9295 146.533 16.5175C145.813 17.0935 144.799 17.3755 143.491 17.3635L138.991 17.3455V7.73346H141.241V10.8835L143.815 10.9015ZM143.293 15.7075C143.953 15.7195 144.457 15.5815 144.805 15.2935C145.153 15.0055 145.327 14.5855 145.327 14.0335C145.327 13.4815 145.153 13.0855 144.805 12.8455C144.469 12.5935 143.965 12.4615 143.293 12.4495L141.241 12.4315V15.6895L143.293 15.7075ZM151.266 13.1695C151.266 12.7255 151.338 12.3355 151.482 11.9995C151.626 11.6635 151.812 11.3635 152.04 11.0995C152.268 10.8355 152.508 10.5895 152.76 10.3615C153.024 10.1335 153.27 9.91146 153.498 9.69546C153.726 9.47946 153.912 9.25146 154.056 9.01146C154.2 8.77146 154.272 8.50146 154.272 8.20146C154.272 7.69746 154.068 7.28946 153.66 6.97746C153.252 6.66546 152.706 6.50946 152.022 6.50946C151.362 6.50946 150.786 6.62946 150.294 6.86946C149.814 7.10946 149.412 7.45146 149.088 7.89546L147.342 6.76146C147.846 6.07746 148.506 5.54346 149.322 5.15946C150.138 4.76346 151.104 4.56546 152.22 4.56546C153.096 4.56546 153.864 4.69746 154.524 4.96146C155.184 5.21346 155.7 5.58546 156.072 6.07746C156.444 6.55746 156.63 7.14546 156.63 7.84146C156.63 8.32146 156.552 8.74146 156.396 9.10146C156.252 9.46146 156.06 9.77946 155.82 10.0555C155.592 10.3195 155.346 10.5715 155.082 10.8115C154.818 11.0395 154.566 11.2675 154.326 11.4955C154.098 11.7235 153.912 11.9695 153.768 12.2335C153.624 12.4975 153.552 12.8095 153.552 13.1695H151.266ZM152.418 17.4715C151.998 17.4715 151.65 17.3335 151.374 17.0575C151.11 16.7815 150.978 16.4515 150.978 16.0675C150.978 15.6835 151.11 15.3595 151.374 15.0955C151.65 14.8195 151.998 14.6815 152.418 14.6815C152.838 14.6815 153.18 14.8195 153.444 15.0955C153.708 15.3595 153.84 15.6835 153.84 16.0675C153.84 16.4515 153.708 16.7815 153.444 17.0575C153.18 17.3335 152.838 17.4715 152.418 17.4715Z" fill="#4D2A6B"/>
</svg>
