<svg width="22" height="22" viewBox="0 0 22 22" fill="none" xmlns="http://www.w3.org/2000/svg">
<path fill-rule="evenodd" clip-rule="evenodd" d="M15.0867 4.27123C18.2094 7.30061 18.2909 12.1951 15.3736 15.2023C12.4563 18.2094 7.5616 18.2763 4.43891 15.247C1.31622 12.2176 1.2347 7.32307 4.152 4.31592C7.0693 1.30878 11.964 1.24184 15.0867 4.27123ZM16.4793 2.83573C20.3709 6.61102 20.5185 12.7712 16.8091 16.5949C13.0997 20.4185 6.93787 20.4577 3.0463 16.6825C-0.845263 12.9072 -0.992918 6.74699 2.71651 2.92332C6.42593 -0.900349 12.5877 -0.939564 16.4793 2.83573ZM17.0404 17.3837C16.6558 17.7801 16.6654 18.4132 17.0618 18.7978L19.7327 21.3888C20.1291 21.7734 20.7622 21.7638 21.1467 21.3674L21.2219 21.2899C21.6065 20.8935 21.5969 20.2604 21.2005 19.8758L18.5296 17.2848C18.1332 16.9002 17.5001 16.9098 17.1156 17.3062L17.0404 17.3837Z" fill="#F7F7F7"/>
</svg>
