<svg width="18" height="4" viewBox="0 0 18 4" fill="none" xmlns="http://www.w3.org/2000/svg">
<g id="&#208;&#191;&#208;&#190;&#208;&#180;&#209;&#128;&#208;&#190;&#208;&#177;&#208;&#189;&#208;&#181;&#208;&#181;">
<path id="Union" fill-rule="evenodd" clip-rule="evenodd" d="M3.37003 1.68501C3.37003 2.61562 2.61562 3.37003 1.68501 3.37003C0.754406 3.37003 0 2.61562 0 1.68501C0 0.754406 0.754406 0 1.68501 0C2.61562 0 3.37003 0.754406 3.37003 1.68501ZM10.5915 1.68512C10.5915 2.61573 9.83712 3.37013 8.90651 3.37013C7.97591 3.37013 7.2215 2.61573 7.2215 1.68512C7.2215 0.754515 7.97591 0.000108576 8.90651 0.000108576C9.83712 0.000108576 10.5915 0.754515 10.5915 1.68512ZM16.1276 3.37013C17.0582 3.37013 17.8126 2.61573 17.8126 1.68512C17.8126 0.754515 17.0582 0.000108576 16.1276 0.000108576C15.197 0.000108576 14.4426 0.754515 14.4426 1.68512C14.4426 2.61573 15.197 3.37013 16.1276 3.37013Z" fill="#4D2A6B"/>
</g>
</svg>
