<svg width="136" height="19" viewBox="0 0 136 19" fill="none" xmlns="http://www.w3.org/2000/svg">
<path d="M0.750741 14.9795V0.979491H6.51074C7.75074 0.979491 8.81074 1.17949 9.69074 1.57949C10.5841 1.97949 11.2707 2.55282 11.7507 3.29949C12.2307 4.04616 12.4707 4.93283 12.4707 5.95949C12.4707 6.98616 12.2307 7.87283 11.7507 8.61949C11.2707 9.36616 10.5841 9.93949 9.69074 10.3395C8.81074 10.7395 7.75074 10.9395 6.51074 10.9395H2.19074L3.35074 9.71949V14.9795H0.750741ZM3.35074 9.99949L2.19074 8.73949H6.39074C7.53741 8.73949 8.39741 8.49949 8.97074 8.01949C9.55741 7.52616 9.85074 6.83949 9.85074 5.95949C9.85074 5.06616 9.55741 4.37949 8.97074 3.89949C8.39741 3.41949 7.53741 3.17949 6.39074 3.17949H2.19074L3.35074 1.89949V9.99949ZM19.5914 15.1195C18.4047 15.1195 17.3647 14.8862 16.4714 14.4195C15.5914 13.9395 14.9047 13.2862 14.4114 12.4595C13.9314 11.6328 13.6914 10.6928 13.6914 9.63949C13.6914 8.57283 13.9247 7.63283 14.3914 6.81949C14.8714 5.99282 15.5247 5.34616 16.3514 4.87949C17.1914 4.41283 18.1447 4.17949 19.2114 4.17949C20.2514 4.17949 21.178 4.40616 21.9914 4.85949C22.8047 5.31282 23.4447 5.95282 23.9114 6.77949C24.378 7.60616 24.6114 8.57949 24.6114 9.69949C24.6114 9.80616 24.6047 9.92616 24.5914 10.0595C24.5914 10.1928 24.5847 10.3195 24.5714 10.4395H15.6714V8.77949H23.2514L22.2714 9.29949C22.2847 8.68616 22.158 8.14616 21.8914 7.67949C21.6247 7.21283 21.258 6.84616 20.7914 6.57949C20.338 6.31283 19.8114 6.17949 19.2114 6.17949C18.598 6.17949 18.058 6.31283 17.5914 6.57949C17.138 6.84616 16.778 7.21949 16.5114 7.69949C16.258 8.16616 16.1314 8.71949 16.1314 9.35949V9.75949C16.1314 10.3995 16.278 10.9662 16.5714 11.4595C16.8647 11.9528 17.278 12.3328 17.8114 12.5995C18.3447 12.8662 18.958 12.9995 19.6514 12.9995C20.2514 12.9995 20.7914 12.9062 21.2714 12.7195C21.7514 12.5328 22.178 12.2395 22.5514 11.8395L23.8914 13.3795C23.4114 13.9395 22.8047 14.3728 22.0714 14.6795C21.3514 14.9728 20.5247 15.1195 19.5914 15.1195ZM27.3457 14.9795V4.29949H35.5457V6.41949H29.2657L29.8457 5.85949V14.9795H27.3457ZM37.3653 14.9795V4.29949H39.8653V11.3395L45.7653 4.29949H48.0453V14.9795H45.5453V7.93949L39.6653 14.9795H37.3653ZM56.2682 15.1195C55.1482 15.1195 54.1482 14.8862 53.2682 14.4195C52.4016 13.9395 51.7216 13.2862 51.2282 12.4595C50.7349 11.6328 50.4882 10.6928 50.4882 9.63949C50.4882 8.57283 50.7349 7.63283 51.2282 6.81949C51.7216 5.99282 52.4016 5.34616 53.2682 4.87949C54.1482 4.41283 55.1482 4.17949 56.2682 4.17949C57.3082 4.17949 58.2216 4.39283 59.0082 4.81949C59.8082 5.23283 60.4149 5.84616 60.8282 6.65949L58.9082 7.77949C58.5882 7.27283 58.1949 6.89949 57.7282 6.65949C57.2749 6.41949 56.7816 6.29949 56.2482 6.29949C55.6349 6.29949 55.0816 6.43283 54.5882 6.69949C54.0949 6.96616 53.7082 7.35283 53.4282 7.85949C53.1482 8.35283 53.0082 8.94616 53.0082 9.63949C53.0082 10.3328 53.1482 10.9328 53.4282 11.4395C53.7082 11.9328 54.0949 12.3128 54.5882 12.5795C55.0816 12.8462 55.6349 12.9795 56.2482 12.9795C56.7816 12.9795 57.2749 12.8595 57.7282 12.6195C58.1949 12.3795 58.5882 12.0062 58.9082 11.4995L60.8282 12.6195C60.4149 13.4195 59.8082 14.0395 59.0082 14.4795C58.2216 14.9062 57.3082 15.1195 56.2682 15.1195ZM65.1712 14.9795V5.81949L65.7512 6.41949H61.4112V4.29949H71.4112V6.41949H67.0912L67.6712 5.81949V14.9795H65.1712ZM79.1446 15.1195C78.278 15.1195 77.4846 14.9195 76.7646 14.5195C76.058 14.1195 75.4913 13.5195 75.0646 12.7195C74.6513 11.9062 74.4446 10.8795 74.4446 9.63949C74.4446 8.38616 74.6446 7.35949 75.0446 6.55949C75.458 5.75949 76.018 5.16616 76.7246 4.77949C77.4313 4.37949 78.238 4.17949 79.1446 4.17949C80.198 4.17949 81.1246 4.40616 81.9246 4.85949C82.738 5.31282 83.378 5.94616 83.8446 6.75949C84.3246 7.57283 84.5646 8.53283 84.5646 9.63949C84.5646 10.7462 84.3246 11.7128 83.8446 12.5395C83.378 13.3528 82.738 13.9862 81.9246 14.4395C81.1246 14.8928 80.198 15.1195 79.1446 15.1195ZM73.2246 18.8595V4.29949H75.6046V6.81949L75.5246 9.65949L75.7246 12.4995V18.8595H73.2246ZM78.8646 12.9795C79.4646 12.9795 79.998 12.8462 80.4646 12.5795C80.9446 12.3128 81.3246 11.9262 81.6046 11.4195C81.8846 10.9128 82.0246 10.3195 82.0246 9.63949C82.0246 8.94616 81.8846 8.35283 81.6046 7.85949C81.3246 7.35283 80.9446 6.96616 80.4646 6.69949C79.998 6.43283 79.4646 6.29949 78.8646 6.29949C78.2646 6.29949 77.7246 6.43283 77.2446 6.69949C76.7646 6.96616 76.3846 7.35283 76.1046 7.85949C75.8246 8.35283 75.6846 8.94616 75.6846 9.63949C75.6846 10.3195 75.8246 10.9128 76.1046 11.4195C76.3846 11.9262 76.7646 12.3128 77.2446 12.5795C77.7246 12.8462 78.2646 12.9795 78.8646 12.9795ZM93.3961 14.9795V12.8195L93.2561 12.3595V8.57949C93.2561 7.84616 93.0361 7.27949 92.5961 6.87949C92.1561 6.46616 91.4894 6.25949 90.5961 6.25949C89.9961 6.25949 89.4027 6.35283 88.8161 6.53949C88.2427 6.72616 87.7561 6.98616 87.3561 7.31949L86.3761 5.49949C86.9494 5.05949 87.6294 4.73283 88.4161 4.51949C89.2161 4.29283 90.0427 4.17949 90.8961 4.17949C92.4427 4.17949 93.6361 4.55283 94.4761 5.29949C95.3294 6.03283 95.7561 7.17283 95.7561 8.71949V14.9795H93.3961ZM90.0361 15.1195C89.2361 15.1195 88.5361 14.9862 87.9361 14.7195C87.3361 14.4395 86.8694 14.0595 86.5361 13.5795C86.2161 13.0862 86.0561 12.5328 86.0561 11.9195C86.0561 11.3195 86.1961 10.7795 86.4761 10.2995C86.7694 9.81949 87.2427 9.43949 87.8961 9.15949C88.5494 8.87949 89.4161 8.73949 90.4961 8.73949H93.5961V10.3995H90.6761C89.8227 10.3995 89.2494 10.5395 88.9561 10.8195C88.6627 11.0862 88.5161 11.4195 88.5161 11.8195C88.5161 12.2728 88.6961 12.6328 89.0561 12.8995C89.4161 13.1662 89.9161 13.2995 90.5561 13.2995C91.1694 13.2995 91.7161 13.1595 92.1961 12.8795C92.6894 12.5995 93.0427 12.1862 93.2561 11.6395L93.6761 13.1395C93.4361 13.7662 93.0027 14.2528 92.3761 14.5995C91.7627 14.9462 90.9827 15.1195 90.0361 15.1195ZM98.8496 14.9795V4.29949H101.35V12.8595H106.45V4.29949H108.95V14.9795H98.8496ZM108.23 17.3595V14.9195L108.81 14.9795H106.45V12.8595H110.57V17.3595H108.23ZM112.795 14.9795V4.29949H115.295V11.3395L121.195 4.29949H123.475V14.9795H120.975V7.93949L115.095 14.9795H112.795ZM133.618 14.9795V11.3395L133.978 11.7595H130.778C129.311 11.7595 128.158 11.4528 127.318 10.8395C126.491 10.2128 126.078 9.31283 126.078 8.13949C126.078 6.88616 126.518 5.93283 127.398 5.27949C128.291 4.62616 129.478 4.29949 130.958 4.29949H135.858V14.9795H133.618ZM125.938 14.9795L128.818 10.8995H131.378L128.618 14.9795H125.938ZM133.618 10.5395V5.73949L133.978 6.39949H131.038C130.265 6.39949 129.665 6.54616 129.238 6.83949C128.825 7.11949 128.618 7.57949 128.618 8.21949C128.618 9.41949 129.398 10.0195 130.958 10.0195H133.978L133.618 10.5395Z" fill="#090909"/>
</svg>
